<?xml version="1.0" encoding="UTF-8" standalone="no"?>
<!-- Created with Inkscape (http://www.inkscape.org/) -->

<svg
   width="320"
   height="210"
   viewBox="0 0 84.666665 55.5625"
   version="1.1"
   id="svg5"
   inkscape:version="1.2.2 (b0a8486541, 2022-12-01)"
   sodipodi:docname="level1.svg"
   xmlns:inkscape="http://www.inkscape.org/namespaces/inkscape"
   xmlns:sodipodi="http://sodipodi.sourceforge.net/DTD/sodipodi-0.dtd"
   xmlns="http://www.w3.org/2000/svg"
   xmlns:svg="http://www.w3.org/2000/svg">
  <sodipodi:namedview
     id="namedview7"
     pagecolor="#505050"
     bordercolor="#ffffff"
     borderopacity="1"
     inkscape:showpageshadow="0"
     inkscape:pageopacity="0"
     inkscape:pagecheckerboard="1"
     inkscape:deskcolor="#505050"
     inkscape:document-units="px"
     showgrid="false"
     inkscape:zoom="4.359103"
     inkscape:cx="157.71593"
     inkscape:cy="142.80461"
     inkscape:window-width="2048"
     inkscape:window-height="1075"
     inkscape:window-x="0"
     inkscape:window-y="0"
     inkscape:window-maximized="1"
     inkscape:current-layer="layer1" />
  <defs
     id="defs2" />
  <g
     inkscape:label="Layer 1"
     inkscape:groupmode="layer"
     id="layer1">
    <rect
       style="fill:#ffffff;stroke-width:0.352777;paint-order:markers stroke fill;stop-color:#000000"
       id="rect234"
       width="84.666664"
       height="55.5625"
       x="0"
       y="0" />
    <circle
       style="fill:#00ff00;stroke-width:0.276523;paint-order:markers stroke fill;stop-color:#000000"
       id="path340"
       cx="2.6458333"
       cy="2.6458333"
       r="2.3812499" />
    <rect
       style="fill:#000000;stroke-width:0.336894;paint-order:markers stroke fill;stop-color:#000000"
       id="rect524"
       width="3.175"
       height="45.772915"
       x="6.6145835"
       y="0" />
    <rect
       style="fill:#000000;stroke-width:0.181115;paint-order:markers stroke fill;stop-color:#000000"
       id="rect524-3"
       width="13.229167"
       height="3.175"
       x="6.6145835"
       y="45.772915" />
    <rect
       style="fill:#000000;stroke-width:0.357673;paint-order:markers stroke fill;stop-color:#000000"
       id="rect524-3-6"
       width="51.59375"
       height="3.175"
       x="26.458334"
       y="45.772915" />
    <rect
       style="fill:#000000;stroke-width:0.256135;paint-order:markers stroke fill;stop-color:#000000"
       id="rect524-3-6-7"
       width="26.458334"
       height="3.175"
       x="19.84375"
       y="35.983334" />
    <rect
       style="fill:#000000;stroke-width:0.256135;paint-order:markers stroke fill;stop-color:#000000"
       id="rect524-3-6-7-3"
       width="26.458334"
       height="3.175"
       x="58.208332"
       y="35.983334" />
    <rect
       style="fill:#00ffff;stroke-width:0.332241;paint-order:markers stroke fill;stop-color:#000000"
       id="rect633"
       width="46.302082"
       height="6.6145835"
       x="29.104166"
       y="48.947918" />
    <rect
       style="fill:#00ffff;stroke-width:0.332241;paint-order:markers stroke fill;stop-color:#000000"
       id="rect633-5"
       width="46.302082"
       height="6.6145835"
       x="29.104166"
       y="39.158333" />
    <path
       style="fill:#000000;stroke-width:0.352777;paint-order:markers stroke fill;stop-color:#000000"
       d="m 36.594883,51.14713 c 0.209566,0.08047 0.40921,0.194305 0.628697,0.241422 1.000091,0.21468 2.621103,0.28167 3.649462,0.326586 0.428781,0.01873 0.859972,-0.03692 1.287573,0 0.392515,0.03389 0.771282,0.167973 1.162839,0.211576 1.140915,0.127053 1.662345,0.105622 2.713625,0.105622 0.332957,0 0.667745,-0.03484 0.998873,0 0.247835,0.02609 0.478004,0.150363 0.725265,0.181401 0.442484,0.05554 0.891914,0 1.337869,0 1.078224,0 2.192644,-0.0714 3.267884,0 0.543185,0.03607 1.093052,0.136596 1.63998,0.172347 0.915165,0.05982 1.843138,-0.06519 2.757885,0 0.589243,0.04199 1.164931,0.08617 1.758005,0.08617"
       id="path708" />
    <path
       style="fill:#000000;stroke-width:0.352777;paint-order:markers stroke fill;stop-color:#000000"
       d="m 56.46675,49.489717 c 0.849844,0.978855 -0.248669,-0.174313 0.745048,0.535482 0.149085,0.106489 0.196784,0.319265 0.343352,0.429191 0.218414,0.163812 0.584899,0.156808 0.772544,0.343352 0.02005,0.01995 -0.02,0.06484 0,0.08483 0.05098,0.05098 0.249227,-0.03454 0.315857,0 0.08526,0.0442 0.454364,0.511908 0.472109,0.55627 0.02106,0.05268 0.08181,0.760667 0.08181,0.825858"
       id="path773" />
    <path
       style="fill:#000000;stroke-width:0.352777;paint-order:markers stroke fill;stop-color:#000000"
       d="m 57.498482,54.310401 c 0.364003,-0.268854 0.765985,-0.620617 1.194022,-0.804063 0.1069,-0.04581 0.530776,-0.03149 0.600869,-0.171675 0.0879,-0.1758 0.06874,-0.920986 0.06874,-1.166863"
       id="path775" />
    <rect
       style="fill:#000000;stroke-width:0.352152;paint-order:markers stroke fill;stop-color:#000000"
       id="rect878"
       width="3.175"
       height="9.7895832"
       x="16.668751"
       y="35.983334" />
    <path
       style="fill:#000000;stroke-width:0.352777;paint-order:markers stroke fill;stop-color:#000000"
       d="m 71.209365,42.52565 c -2.058892,-0.143711 -4.182377,-0.03029 -6.236116,-0.05809 -1.193371,-0.01617 -2.38562,-0.0851 -3.578973,-0.102426 -2.181217,-0.03167 -4.363244,-0.03901 -6.544342,0 -0.886783,0.01588 -1.772079,0.08353 -2.6588,0.102426 -0.715632,0.01524 -1.431589,0 -2.147385,0 -1.140593,0.03185 -2.281023,0.07012 -3.42178,0.09555 -0.462065,0.01029 -0.925375,0.03061 -1.386541,0 -0.496866,-0.03298 -0.998037,-0.12827 -1.496552,-0.12827"
       id="path1085" />
    <path
       style="fill:#000000;stroke-width:0.352777;paint-order:markers stroke fill;stop-color:#000000"
       d="m 45.070646,40.840133 c -0.451202,0.138435 -0.745564,0.539599 -1.142093,0.759894 -0.09524,0.05291 -0.206033,0.07267 -0.303485,0.121393 -0.126796,0.0634 -0.214675,0.182089 -0.363468,0.182089"
       id="path1089" />
    <path
       style="fill:#000000;stroke-width:0.352777;paint-order:markers stroke fill;stop-color:#000000"
       d="m 43.281515,42.932746 c 0.103058,0.04047 0.219652,0.05625 0.309176,0.121394 0.485375,0.353216 0.865997,0.931584 1.371129,1.310433"
       id="path1091" />
    <rect
       style="fill:#000000;stroke-width:0.255536;paint-order:markers stroke fill;stop-color:#000000"
       id="rect1135"
       width="3.175"
       height="6.6145835"
       x="36.512501"
       y="29.36875" />
    <rect
       style="fill:#000000;stroke-width:0.640373;paint-order:markers stroke fill;stop-color:#000000"
       id="rect1135-5"
       width="41.539581"
       height="3.175"
       x="36.512501"
       y="26.19375" />
    <rect
       style="fill:#000000;stroke-width:0.615414;paint-order:markers stroke fill;stop-color:#000000"
       id="rect1135-5-2"
       width="38.364582"
       height="3.175"
       x="46.302082"
       y="16.404167" />
    <rect
       style="fill:#000000;stroke-width:0.402419;paint-order:markers stroke fill;stop-color:#000000"
       id="rect1135-6-9"
       width="3.175"
       height="16.404167"
       x="36.512501"
       y="9.7895823" />
    <rect
       style="fill:#000000;stroke-width:0.640373;paint-order:markers stroke fill;stop-color:#000000"
       id="rect1135-5-2-1"
       width="41.539581"
       height="3.175"
       x="36.512501"
       y="6.6145835" />
    <rect
       style="fill:#ff0000;stroke-width:0.360093;paint-order:markers stroke fill;stop-color:#000000"
       id="rect1290"
       width="6.6145835"
       height="6.6145835"
       x="39.6875"
       y="29.36875" />
    <rect
       style="fill:#00ffff;stroke-width:0.628406;paint-order:markers stroke fill;stop-color:#000000"
       id="rect1420"
       width="11.90625"
       height="9.7895832"
       x="46.302082"
       y="29.36875" />
    <rect
       style="fill:#00ff00;stroke-width:0.363768;paint-order:markers stroke fill;stop-color:#000000"
       id="rect1753"
       width="6.8791666"
       height="9.7895832"
       x="9.7895832"
       y="35.983334" />
    <rect
       style="fill:#ff0000;stroke-width:0.337734;paint-order:markers stroke fill;stop-color:#000000"
       id="rect1838"
       width="9.7895832"
       height="30.691666"
       x="9.7895832"
       y="0" />
    <rect
       style="fill:#ff0000;stroke-width:0.330375;paint-order:markers stroke fill;stop-color:#000000"
       id="rect1838-2"
       width="9.7895832"
       height="29.36875"
       x="26.722916"
       y="6.6145835" />
    <path
       style="fill:#000000;stroke-width:0.352777;paint-order:markers stroke fill;stop-color:#000000"
       d="m 55.288327,37.898948 c -0.0607,-0.141153 -0.09657,-0.29581 -0.182091,-0.423455 -0.186074,-0.277712 -0.860047,-0.704853 -1.021887,-0.826519 -0.417727,-0.314034 -0.862941,-0.596312 -1.244994,-0.952891 -0.188841,-0.17625 -0.32199,-0.406369 -0.510231,-0.583258 -0.170087,-0.159827 -0.387016,-0.263853 -0.559075,-0.421558 -0.196416,-0.180031 -0.97273,-1.103255 -1.12526,-1.37018 -0.100777,-0.176358 -0.152937,-0.427265 -0.242786,-0.606967 -0.171935,-0.343868 -0.04208,-0.108138 -0.121394,-0.302773 -0.0389,-0.09545 -0.203904,-0.06885 -0.203904,-0.221687"
       id="path2132" />
    <path
       style="fill:#000000;stroke-width:0.352777;paint-order:markers stroke fill;stop-color:#000000"
       d="m 53.819038,31.397522 c -0.278114,0 -0.556228,0 -0.834342,0 -0.787631,0 0.121417,0.01209 -0.974231,-0.0607 -0.161975,-0.01077 -0.327816,0.03184 -0.486997,0 -0.175585,-0.03512 -0.307422,-0.137906 -0.48415,-0.182089 -0.134041,-0.03351 -0.994143,-0.052 -1.150157,0 -0.100111,0.03337 -0.08637,0.120443 -0.210304,0.120443"
       id="path2134" />
    <path
       style="fill:#000000;stroke-width:0.352777;paint-order:markers stroke fill;stop-color:#000000"
       d="m 49.043674,31.814812 c 0.215411,1.554488 -0.07664,-0.686059 0.05477,0.75942 0.04388,0.482677 0.225066,0.925526 0.303483,1.396024 0.0745,0.447016 0.006,1.27013 -0.182089,1.63739 -0.01635,0.03194 0.02681,0.08379 0,0.107643 -0.06433,0.05724 -0.296868,0.120917 -0.380066,0.120917"
       id="path2136" />
  </g>
</svg>
