<?xml version="1.0" encoding="UTF-8" standalone="no"?>
<!-- Created with Inkscape (http://www.inkscape.org/) -->

<svg
   width="320"
   height="210"
   viewBox="0 0 84.666665 55.5625"
   version="1.1"
   id="svg5"
   inkscape:version="1.2.2 (b0a8486541, 2022-12-01)"
   sodipodi:docname="level3.svg"
   xmlns:inkscape="http://www.inkscape.org/namespaces/inkscape"
   xmlns:sodipodi="http://sodipodi.sourceforge.net/DTD/sodipodi-0.dtd"
   xmlns="http://www.w3.org/2000/svg"
   xmlns:svg="http://www.w3.org/2000/svg">
  <sodipodi:namedview
     id="namedview7"
     pagecolor="#505050"
     bordercolor="#ffffff"
     borderopacity="1"
     inkscape:showpageshadow="0"
     inkscape:pageopacity="0"
     inkscape:pagecheckerboard="1"
     inkscape:deskcolor="#505050"
     inkscape:document-units="px"
     showgrid="false"
     inkscape:zoom="3.0823513"
     inkscape:cx="125.71572"
     inkscape:cy="97.814938"
     inkscape:window-width="2048"
     inkscape:window-height="1075"
     inkscape:window-x="0"
     inkscape:window-y="0"
     inkscape:window-maximized="1"
     inkscape:current-layer="layer1" />
  <defs
     id="defs2" />
  <g
     inkscape:label="Layer 1"
     inkscape:groupmode="layer"
     id="layer1">
    <rect
       style="display:inline;fill:#ffffff;stroke-width:0.352777;paint-order:markers stroke fill;stop-color:#000000"
       id="rect234"
       width="84.666664"
       height="55.5625"
       x="0"
       y="0" />
    <circle
       style="display:inline;fill:#00ff00;stroke-width:0.276523;paint-order:markers stroke fill;stop-color:#000000"
       id="path340"
       cx="2.6458333"
       cy="2.6458333"
       r="2.3812499" />
    <rect
       style="display:inline;fill:#00ff00;stroke-width:0.406282;paint-order:markers stroke fill;stop-color:#000000"
       id="rect1753"
       width="10.583333"
       height="7.9375"
       x="37.041668"
       y="23.8125" />
    <rect
       style="fill:#00ffff;stroke-width:0.298904;paint-order:markers stroke fill;stop-color:#000000"
       id="rect2220"
       width="6.6145835"
       height="48.947918"
       x="6.6145835"
       y="0" />
    <rect
       style="fill:#00ffff;stroke-width:0.202608;paint-order:markers stroke fill;stop-color:#000000"
       id="rect2220-3"
       width="6.6145835"
       height="22.489584"
       x="19.84375"
       y="19.84375" />
    <rect
       style="fill:#00ffff;stroke-width:0.202608;paint-order:markers stroke fill;stop-color:#000000"
       id="rect2220-3-0"
       width="6.6145835"
       height="22.489584"
       x="58.208332"
       y="13.229167" />
    <rect
       style="fill:#00ffff;stroke-width:0.298904;paint-order:markers stroke fill;stop-color:#000000"
       id="rect2220-9"
       width="6.6145835"
       height="48.947918"
       x="71.4375"
       y="6.6145835" />
    <rect
       style="fill:#00ffff;stroke-width:0.343975;paint-order:markers stroke fill;stop-color:#000000"
       id="rect2220-7"
       width="64.822914"
       height="6.6145835"
       x="6.6145835"
       y="48.947918" />
    <rect
       style="fill:#00ffff;stroke-width:0.343975;paint-order:markers stroke fill;stop-color:#000000"
       id="rect2220-7-0"
       width="64.822914"
       height="6.6145835"
       x="13.229167"
       y="0" />
    <rect
       style="fill:#00ffff;stroke-width:0.392657;paint-order:markers stroke fill;stop-color:#000000"
       id="rect2576"
       width="38.364582"
       height="6.6145835"
       x="19.84375"
       y="13.229167" />
    <rect
       style="fill:#00ffff;stroke-width:0.392657;paint-order:markers stroke fill;stop-color:#000000"
       id="rect2576-6"
       width="38.364582"
       height="6.6145835"
       x="26.458334"
       y="35.71875" />
    <circle
       style="display:inline;fill:#ff0000;stroke-width:0.322705;paint-order:markers stroke fill;stop-color:#000000"
       id="path2684"
       cx="23.151041"
       cy="16.536459"
       r="6.6145835" />
    <circle
       style="display:inline;fill:#ff0000;stroke-width:0.322705;paint-order:markers stroke fill;stop-color:#000000"
       id="path2684-2"
       cx="23.151041"
       cy="39.026043"
       r="6.6145835" />
    <circle
       style="display:inline;fill:#ff0000;stroke-width:0.322705;paint-order:markers stroke fill;stop-color:#000000"
       id="path2684-6"
       cx="61.515625"
       cy="16.536459"
       r="6.6145835" />
    <circle
       style="display:inline;fill:#ff0000;stroke-width:0.322705;paint-order:markers stroke fill;stop-color:#000000"
       id="path2684-2-1"
       cx="61.515625"
       cy="39.026043"
       r="6.6145835" />
    <path
       style="fill:#000000;stroke-width:0.352777;paint-order:markers stroke fill;stop-color:#000000"
       id="path2820"
       d="m 68.376312,3.2973996 c -2.338906,-0.035033 -4.67823,-0.044061 -7.017326,-0.065046 -1.603717,-0.014759 -3.207367,-0.036052 -4.811141,-0.043235 -1.586799,0.026265 -3.172767,-0.011419 -4.759058,-0.047031 -2.540979,-0.0462 -5.082667,-0.046609 -7.624014,-0.054617 -2.350291,-0.00428 -4.700563,-0.00958 -7.050823,-0.022323 -0.918786,-0.00425 -1.837499,-0.0175 -2.756304,-0.015608 -0.426921,-6.085e-4 -0.218861,-1.008e-4 -0.624179,-0.00151 0,0 0.78331,0.5690939 0.78331,0.5690939 v 0 c 0.401944,-0.00148 0.195331,-9.261e-4 0.619842,-0.00167 0.903803,0.00148 1.807495,-0.012488 2.711278,-0.017095 2.334508,-0.013309 4.669038,-0.01833 7.003581,-0.011665 2.553833,0.00752 5.107845,0.018719 7.660995,0.083764 1.599766,0.039184 3.199437,0.08371 4.79988,0.074168 1.578472,-0.00507 3.156937,-0.016256 4.735425,-0.011144 2.371061,0.010665 4.74463,0.012893 7.112757,0.1417746 0,0 -0.784223,-0.5778751 -0.784223,-0.5778751 z" />
    <path
       style="fill:#000000;stroke-width:0.352777;paint-order:markers stroke fill;stop-color:#000000"
       id="path2822"
       d="m 33.18253,0.53960606 c -0.06089,0.0297201 -0.124229,0.054871 -0.182668,0.0891603 C 32.59406,0.86687333 32.2049,1.1369679 31.803623,1.38273 31.651932,1.4756337 31.09392,1.8008554 30.928119,1.8977801 30.738326,2.0509028 30.271521,2.200584 30.269333,2.5208402 c -0.0024,0.3527213 0.429657,0.5787345 0.665361,0.7452391 0.609798,0.4336809 1.216493,0.7099959 1.90011,0.9476235 0,0 -0.757827,-0.5910776 -0.757827,-0.5910776 v 0 C 31.964944,3.582076 31.851354,3.5455902 31.740877,3.5009775 31.310688,3.3272613 31.134658,3.1914528 31.824842,3.6154513 31.658017,3.505759 31.164463,3.2319835 31.124191,2.99476 c -0.04759,-0.2802978 0.466585,-0.4537011 0.599377,-0.5815806 0.755806,-0.4519606 1.496218,-0.9403086 2.285878,-1.3294926 0,0 -0.826916,-0.54408074 -0.826916,-0.54408074 z" />
    <path
       style="fill:#000000;stroke-width:0.352777;paint-order:markers stroke fill;stop-color:#000000"
       id="path2824"
       d="m 8.3614153,7.9757653 c 0.02432,0.1845762 0.054441,0.3684801 0.072958,0.5537284 0.143972,1.4403073 0.1817479,2.8985183 0.2230329,4.3437313 0.057767,2.022184 0.064282,3.196177 0.090494,5.244217 0.056224,3.764351 0.059072,7.529123 0.1330746,11.293199 0.00511,0.232098 0.010221,0.464193 0.01533,0.696288 0,0 0.8250579,0.416174 0.8250579,0.416174 v 0 c -0.013936,-0.236397 -0.027869,-0.472797 -0.041803,-0.709195 -0.19882,-3.789175 -0.2690013,-7.582947 -0.3031693,-11.376916 -0.00403,-0.908835 -0.00806,-1.81767 -0.012083,-2.726504 -0.00302,-0.827841 -0.0056,-1.655684 -0.00906,-2.483524 -0.00673,-1.607706 0.00473,-3.219646 -0.1188886,-4.8238853 0,0 -0.8749395,-0.4273134 -0.8749395,-0.4273134 z" />
    <path
       style="fill:#000000;stroke-width:0.352777;paint-order:markers stroke fill;stop-color:#000000"
       id="path2826"
       d="m 7.4301817,29.070818 c 0.4016579,0.592609 0.8466061,1.149154 1.3865003,1.620568 0.4873157,0.359248 0.2793971,0.217313 1.220958,0.741656 0.100445,0.05594 0.333996,0.155641 0.456106,0.140237 0.05445,-0.0069 0.101609,-0.04151 0.152414,-0.06227 0.373421,-0.246962 0.620796,-0.614354 0.860476,-0.982445 0,0 -0.836193,-0.48886 -0.836193,-0.48886 v 0 c -0.227802,0.34861 -0.463678,0.708496 -0.837289,0.916223 -0.041287,0.007 -0.082028,0.02283 -0.1238599,0.02096 -0.2429963,-0.01093 -1.3049933,-0.601824 0.2155399,0.221469 0.074916,0.04056 -0.1407782,-0.09598 -0.2111674,-0.143973 -0.5481889,-0.452432 -1.0032312,-0.994402 -1.3855758,-1.593784 0,0 -0.8979091,-0.389784 -0.8979091,-0.389784 z" />
    <path
       style="fill:#000000;stroke-width:0.352777;paint-order:markers stroke fill;stop-color:#000000"
       id="path2828"
       d="m 23.896693,51.810729 c 2.218741,0.128429 4.420645,0.442722 6.635358,0.623247 0.864939,0.0705 1.731219,0.123465 2.596827,0.185195 5.719972,0.307168 11.447523,0.437388 17.174446,0.525759 2.326494,0.02193 4.653121,0.0081 6.979554,-0.01318 0,0 -0.741346,-0.536369 -0.741346,-0.536369 v 0 c -2.280756,0.07075 -4.56242,0.112646 -6.844379,0.108059 -5.717567,-0.04581 -11.438319,-0.132509 -17.145249,-0.510167 -0.876276,-0.07032 -1.753367,-0.13113 -2.628828,-0.210966 -2.278357,-0.207769 -4.539901,-0.558474 -6.819752,-0.747988 0,0 0.793369,0.576416 0.793369,0.576416 z" />
    <path
       style="fill:#000000;stroke-width:0.352777;paint-order:markers stroke fill;stop-color:#000000"
       id="path2830"
       d="m 57.845068,51.203145 c 0.185914,0.483981 0.30952,0.992542 0.42904,1.496584 0.03203,0.135067 0.07459,0.268827 0.08835,0.406955 0.01077,0.108165 -0.01024,0.217157 -0.01535,0.325737 -0.04437,0.08121 -0.07103,0.175001 -0.133112,0.243626 -0.325366,0.359664 -1.041561,0.425217 -1.494099,0.472903 0,0 0.790302,0.560191 0.790302,0.560191 v 0 c 0.488858,-0.06331 1.202495,-0.151206 1.543371,-0.551831 0.06919,-0.08131 0.09977,-0.188793 0.149653,-0.283188 0.0064,-0.117499 0.03022,-0.23535 0.0191,-0.352497 -0.01328,-0.140009 -0.05917,-0.275005 -0.09163,-0.411845 -0.118409,-0.499102 -0.235164,-1.001538 -0.390832,-1.490152 0,0 -0.894789,-0.416483 -0.894789,-0.416483 z" />
    <path
       style="fill:#000000;stroke-width:0.352777;paint-order:markers stroke fill;stop-color:#000000"
       id="path2832"
       d="m 35.322332,17.164538 c 0.439166,-0.118313 0.792697,-0.219398 1.25685,-0.308264 2.313956,-0.443025 4.680845,-0.559629 7.0265,-0.71133 1.937499,-0.114334 3.87712,-0.183709 5.817198,-0.233534 0,0 -0.725064,-0.522824 -0.725064,-0.522824 v 0 c -1.907114,0.08849 -3.813815,0.186453 -5.719217,0.306912 -2.828645,0.182806 -5.688902,0.280023 -8.462468,0.911404 0,0 0.806201,0.557636 0.806201,0.557636 z" />
    <path
       style="fill:#000000;stroke-width:0.352777;paint-order:markers stroke fill;stop-color:#000000"
       id="path2834"
       d="m 48.843816,13.42148 c 0.687723,0.823267 1.393497,1.63164 2.088819,2.448763 0.180914,0.242346 0.535265,0.543212 0.415031,0.897388 -0.11352,0.334394 -0.492565,0.546434 -0.763133,0.725369 -0.460182,0.228371 -0.233918,0.121051 -0.678235,0.323133 0,0 0.801703,0.530812 0.801703,0.530812 v 0 c 0.444251,-0.210635 0.216728,-0.09829 0.68185,-0.338478 0.298857,-0.202053 0.685882,-0.430515 0.818205,-0.794791 0.144336,-0.397337 -0.186825,-0.702196 -0.409691,-0.977052 -0.693198,-0.8021 -1.386925,-1.605848 -2.054241,-2.429137 0,0 -0.900308,-0.386007 -0.900308,-0.386007 z" />
    <path
       style="fill:#000000;stroke-width:0.352777;paint-order:markers stroke fill;stop-color:#000000"
       id="path2836"
       d="m 61.195833,24.183148 c 0.03529,1.160811 -0.01312,2.322339 -0.04517,3.482741 -0.01085,0.356251 -0.01535,0.744767 -0.05041,1.10255 -0.01045,0.106609 -0.01995,0.214215 -0.04661,0.317963 -0.01363,0.05305 -0.03314,0.109625 -0.07295,0.147249 -0.01556,0.01471 -0.07967,-0.03083 -0.06069,-0.02095 0.247914,0.129013 0.498699,0.252433 0.748051,0.378653 -0.286769,-0.306602 -0.521293,-0.646599 -0.867082,-0.892556 -1.336321,-0.729491 -0.591323,-0.398008 -1.099939,-0.575038 -0.08896,-0.03096 -0.338947,-0.16393 -0.257011,-0.117464 0.766426,0.434642 0.939371,0.603443 0.677823,0.360579 -0.0393,0.01823 0.338195,0.202864 0.271676,0.164468 -1.041889,-0.601411 -0.710718,-0.428482 -0.430262,-0.194739 0.06685,0.05571 0.129402,0.116388 0.194106,0.174583 0.267015,0.210481 0.381479,0.577533 0.679677,0.753576 0.33292,0.19654 0.674812,0.377468 1.01222,0.566203 0.482494,0.142298 0.982569,0.04632 1.46232,-0.05656 0.175945,-0.04889 0.351284,-0.07727 0.533111,-0.07849 0,0 -0.800052,-0.574816 -0.800052,-0.574816 v 0 c -0.180271,0.01773 -0.356679,0.05183 -0.53218,0.09782 -0.471329,0.09854 -0.965989,0.178943 -1.429838,0.0026 1.661994,1.012967 0.664226,0.421941 0.519502,0.304945 -0.223335,-0.180552 -0.328674,-0.458263 -0.545473,-0.647139 -0.490821,-0.461544 -0.692558,-0.549471 -1.431049,-0.954868 -0.08562,-0.047 -0.240753,-0.10935 -0.344856,-0.0522 -0.03679,0.02019 -0.04648,0.06988 -0.06972,0.104817 0.239022,0.394724 0.03816,0.09228 1.000855,0.643245 0.08655,0.04953 0.174858,0.07655 0.267621,0.109585 0.03843,0.01368 0.149355,0.06357 0.115231,0.04122 -0.230941,-0.151292 -0.47208,-0.286414 -0.70812,-0.429623 0.363765,0.222795 0.616995,0.546939 0.865735,0.888521 0.327793,0.181875 0.641266,0.392375 0.983377,0.545627 0.08995,0.04029 0.151651,-0.144121 0.171892,-0.240581 0.0992,-0.47267 0.01998,-0.971907 0.06467,-1.447839 0.02757,-1.152382 0.07552,-2.304007 0.102216,-3.456345 0,0 -0.878665,-0.447702 -0.878665,-0.447702 z" />
  </g>
</svg>
